<?xml version="1.0" encoding="utf-8"?>
<!-- Generator: Adobe Illustrator 19.1.1, SVG Export Plug-In . SVG Version: 6.00 Build 0)  -->
<svg version="1.1" id="Capa_1" xmlns="http://www.w3.org/2000/svg" xmlns:xlink="http://www.w3.org/1999/xlink" x="0px" y="0px"
	 viewBox="0 0 153.7 182.4" style="enable-background:new 0 0 153.7 182.4;" xml:space="preserve">
<style type="text/css">
	.st0{fill:#0065AC;}
</style>
<path class="st0" d="M104.5,143c-6.8,6-15,9-24.4,9c-12.8,0-23.3-4.7-31.3-14.2c-8-9.5-12-25.4-12-47.6c0-21,4.1-36.2,12.2-45.6
	c8.1-9.4,18.8-14.1,31.8-14.1c9.5,0,17.5,2.7,24.1,7.9c6.6,5.3,11,12.5,13.1,21.6l35.3-8.4c-4-14.1-10-24.9-18.1-32.5
	C121.7,6.4,104.1,0,82.6,0C57.9,0,37.9,8.1,22.7,24.4C7.6,40.6,0,63.4,0,92.8c0,27.8,7.5,49.6,22.6,65.6c15.1,16,34.3,24,57.8,24
	c18.9,0,34.6-4.7,46.9-14c12.3-9.3,21.1-23.6,26.4-42.9l-34.6-11C116.2,127.5,111.3,137,104.5,143z"/>
</svg>
