<?xml version="1.0" encoding="UTF-8" standalone="no"?>
<!-- Generator: Adobe Illustrator 16.0.0, SVG Export Plug-In . SVG Version: 6.00 Build 0)  -->

<svg
   xmlns:dc="http://purl.org/dc/elements/1.1/"
   xmlns:cc="http://creativecommons.org/ns#"
   xmlns:rdf="http://www.w3.org/1999/02/22-rdf-syntax-ns#"
   xmlns:svg="http://www.w3.org/2000/svg"
   xmlns="http://www.w3.org/2000/svg"
   xmlns:sodipodi="http://sodipodi.sourceforge.net/DTD/sodipodi-0.dtd"
   xmlns:inkscape="http://www.inkscape.org/namespaces/inkscape"
   version="1.1"
   id="Capa_1"
   x="0px"
   y="0px"
   width="401.999px"
   height="401.998px"
   viewBox="0 0 401.999 401.998"
   style="enable-background:new 0 0 401.999 401.998;"
   xml:space="preserve"
   inkscape:version="0.91 r13725"
   sodipodi:docname="exclamation2.svg"><metadata
     id="metadata45"><rdf:RDF><cc:Work
         rdf:about=""><dc:format>image/svg+xml</dc:format><dc:type
           rdf:resource="http://purl.org/dc/dcmitype/StillImage" /><dc:title></dc:title></cc:Work></rdf:RDF></metadata><defs
     id="defs43" /><sodipodi:namedview
     pagecolor="#ffffff"
     bordercolor="#666666"
     borderopacity="1"
     objecttolerance="10"
     gridtolerance="10"
     guidetolerance="10"
     inkscape:pageopacity="0"
     inkscape:pageshadow="2"
     inkscape:window-width="1855"
     inkscape:window-height="1056"
     id="namedview41"
     showgrid="false"
     inkscape:zoom="0.58706762"
     inkscape:cx="200.9995"
     inkscape:cy="200.99899"
     inkscape:window-x="65"
     inkscape:window-y="24"
     inkscape:window-maximized="1"
     inkscape:current-layer="Capa_1" /><g
     id="g3"
     transform="matrix(-1,0,0,-1,401.99912,401.999)"><g
       id="g5"><path
         d="m 237.543,301.499 -73.091,0 c -4.95,0 -9.233,1.811 -12.851,5.425 -3.615,3.617 -5.424,7.897 -5.424,12.847 l 0,63.953 c 0,4.948 1.809,9.232 5.424,12.854 3.621,3.61 7.9,5.421 12.851,5.421 l 73.097,0 c 4.942,0 9.227,-1.811 12.848,-5.421 3.61,-3.621 5.42,-7.905 5.42,-12.854 l 0,-63.953 c 0,-4.949 -1.813,-9.229 -5.427,-12.847 -3.617,-3.617 -7.902,-5.425 -12.847,-5.425 z"
         id="path7"
         style="fill:#d40000"
         inkscape:connector-curvature="0" /><path
         d="M 259.383,5.424 C 255.862,1.812 251.628,0 246.676,0 l -91.359,0 c -4.948,0 -9.18,1.812 -12.703,5.424 -3.521,3.617 -5.186,7.902 -4.996,12.85 l 7.992,219.265 c 0.19,4.948 2.139,9.236 5.852,12.847 3.711,3.621 8.041,5.431 12.991,5.431 l 73.097,0 c 4.942,0 9.271,-1.81 12.991,-5.431 3.71,-3.61 5.653,-7.898 5.852,-12.847 L 264.38,18.274 c 0.198,-4.948 -1.475,-9.229 -4.997,-12.85 z"
         id="path9"
         style="fill:#d40000"
         inkscape:connector-curvature="0" /></g></g><g
     id="g11"
     style="fill:#d40000" /><g
     id="g13"
     style="fill:#d40000" /><g
     id="g15"
     style="fill:#d40000" /><g
     id="g17"
     style="fill:#d40000" /><g
     id="g19"
     style="fill:#d40000" /><g
     id="g21"
     style="fill:#d40000" /><g
     id="g23"
     style="fill:#d40000" /><g
     id="g25"
     style="fill:#d40000" /><g
     id="g27"
     style="fill:#d40000" /><g
     id="g29"
     style="fill:#d40000" /><g
     id="g31"
     style="fill:#d40000" /><g
     id="g33"
     style="fill:#d40000" /><g
     id="g35"
     style="fill:#d40000" /><g
     id="g37"
     style="fill:#d40000" /><g
     id="g39"
     style="fill:#d40000" /></svg>