<?xml version="1.0" encoding="iso-8859-1"?>
<!-- Generator: Adobe Illustrator 19.0.0, SVG Export Plug-In . SVG Version: 6.00 Build 0)  -->
<svg version="1.1" id="Layer_1" xmlns="http://www.w3.org/2000/svg" xmlns:xlink="http://www.w3.org/1999/xlink" x="0px" y="0px"
	 viewBox="0 0 344.996 344.996" style="enable-background:new 0 0 344.996 344.996;" xml:space="preserve">
<g>
	<path style="fill:#FFFFFF;" d="M149.178,243.337c0-12.88,10.441-23.32,23.32-23.32c12.879,0,23.32,10.441,23.32,23.32h89.451
		c0-31.16-12.638-59.368-33.068-79.779c-20.404-20.386-48.581-32.992-79.703-32.992c-31.141,0-59.334,12.622-79.741,33.03
		c-20.408,20.407-33.03,48.6-33.03,79.741H149.178L149.178,243.337z"/>
	<path style="fill:#CBE5C0;" d="M7.5,243.337h52.227c0-31.141,12.622-59.334,33.03-79.741l-36.93-36.93
		C25.968,156.525,7.5,197.774,7.5,243.337z"/>
	<path style="fill:#FFDA79;" d="M55.827,126.666l36.93,36.93c20.408-20.408,48.6-33.03,79.741-33.03V78.339
		C126.935,78.339,85.685,96.807,55.827,126.666z"/>
	<circle style="fill:#51B3DA;" cx="172.498" cy="243.337" r="23.32"/>
	<path style="fill:#FF9392;" d="M337.496,243.337h-52.227c0-31.141-12.622-59.334-33.03-79.741l36.93-36.93
		C319.028,156.525,337.496,197.774,337.496,243.337z"/>
	<path style="fill:#F59D00;" d="M289.169,126.666l-36.93,36.93c-20.408-20.408-48.6-33.03-79.741-33.03V78.339
		C218.061,78.339,259.311,96.807,289.169,126.666z"/>
	<g>
		<path style="fill:#C7E9F4;" d="M175.884,220.29c10.162,1.482,18.179,9.5,19.661,19.662l44.785-64.447L175.884,220.29z"/>
		<path style="fill:#13829B;" d="M172.498,70.839C77.159,70.839,0,147.989,0,243.337c0,4.143,3.358,7.5,7.5,7.5
			c3.327,0,132.584,0,135.105,0c3.359,13.381,15.485,23.32,29.893,23.32c14.408,0,26.534-9.939,29.893-23.32
			c2.501,0,131.682,0,135.105,0c4.142,0,7.5-3.357,7.5-7.5C344.996,147.999,267.846,70.839,172.498,70.839z M277.504,235.837
			h-69.966l38.951-56.052c4.752-6.837-3.612-15.186-10.438-10.439l-62.169,43.202c-14.924-0.659-27.784,9.397-31.282,23.289H67.492
			c3.872-55.03,49.599-97.77,105.006-97.77C228.107,138.066,273.652,181.097,277.504,235.837z M197.018,224.69
			c-1.767-2.32-3.631-4.137-5.874-5.872l19.25-13.377L197.018,224.69z M179.998,86.013c36.764,1.712,71.234,15.99,98.441,40.776
			c-13.327,13.327-13.14,13.14-26.362,26.361c-20.03-17.732-45.234-28.203-72.08-29.855V86.013z M164.998,123.295
			c-26.423,1.628-51.656,11.796-72.08,29.855c-13.203-13.202-13.024-13.024-26.362-26.361
			c27.207-24.786,61.677-39.064,98.441-40.776V123.295z M55.949,137.396l26.362,26.361c-17.216,19.459-28.163,44.448-29.856,72.08
			H15.174C16.886,199.072,31.163,164.602,55.949,137.396z M172.498,259.157c-8.723,0-15.82-7.097-15.82-15.82
			c0-8.724,7.097-15.82,15.82-15.82c8.596,0,15.82,7.117,15.82,15.82C188.318,252.061,181.221,259.157,172.498,259.157z
			 M292.54,235.837c-1.635-26.782-12.07-51.963-29.856-72.08l26.362-26.361c24.786,27.206,39.064,61.676,40.775,98.441H292.54z"/>
	</g>
</g>
<g>
</g>
<g>
</g>
<g>
</g>
<g>
</g>
<g>
</g>
<g>
</g>
<g>
</g>
<g>
</g>
<g>
</g>
<g>
</g>
<g>
</g>
<g>
</g>
<g>
</g>
<g>
</g>
<g>
</g>
</svg>
