<?xml version="1.0" encoding="utf-8"?>
<!-- Generator: Adobe Illustrator 19.1.1, SVG Export Plug-In . SVG Version: 6.00 Build 0)  -->
<svg version="1.1" id="Capa_1" xmlns="http://www.w3.org/2000/svg" xmlns:xlink="http://www.w3.org/1999/xlink" x="0px" y="0px"
	 viewBox="0 0 100 100" style="enable-background:new 0 0 100 100;" xml:space="preserve">
<style type="text/css">
	.st0{fill:#E9E9E0;}
	.st1{fill:#D9D7CA;}
	.st2{fill:#CC4B4C;}
	.st3{fill:#FFFFFF;}
</style>
<g>
	<path class="st0" d="M63.6,9.6h-43c-1.2,0-2.2,1-2.2,2.9v78.7c0,0.5,1,1.5,2.2,1.5H80c1.2,0,2.2-1,2.2-1.5V28.9
		c0-1-0.1-1.4-0.4-1.6L64.5,10C64.2,9.8,63.9,9.6,63.6,9.6z"/>
	<polygon class="st1" points="64.3,9.9 64.3,27.4 81.9,27.4 	"/>
	<path class="st2" d="M37.6,59.1L37.6,59.1c-0.5,0-1-0.2-1.4-0.5c-1.5-1.2-1.8-2.4-1.7-3.3c0.3-2.4,3.3-4.9,8.9-7.5
		c2.2-4.9,4.4-10.9,5.6-15.9c-1.5-3.2-2.9-7.4-1.9-9.9c0.4-0.9,0.8-1.5,1.7-1.8c0.3-0.1,1.2-0.3,1.5-0.3c0.7,0,1.4,1,1.9,1.6
		c0.4,0.6,1.4,1.7-0.6,10.1c2,4.1,4.8,8.3,7.5,11.2c1.9-0.4,3.6-0.5,5-0.5c2.3,0,3.7,0.5,4.3,1.7c0.5,0.9,0.3,2-0.6,3.2
		c-0.8,1.2-2,1.8-3.3,1.8c-1.8,0-3.9-1.1-6.2-3.4c-4.2,0.9-9.1,2.4-13.1,4.2c-1.2,2.6-2.4,4.8-3.5,6.3
		C40.3,58.1,38.9,59.1,37.6,59.1z M41.6,51.5c-3.2,1.8-4.5,3.2-4.6,4.1c0,0.1-0.1,0.5,0.6,1C37.9,56.5,39.2,55.9,41.6,51.5z
		 M61.8,44.9c1.2,0.9,1.5,1.4,2.3,1.4c0.3,0,1.3,0,1.8-0.7c0.2-0.3,0.3-0.5,0.3-0.6c-0.2-0.1-0.4-0.3-1.7-0.3
		C63.8,44.7,62.8,44.7,61.8,44.9z M50.7,35.1c-1.1,3.7-2.5,7.6-4,11.2c3.1-1.2,6.5-2.3,9.6-3C54.4,41,52.4,38.1,50.7,35.1z
		 M49.8,22.6c-0.1,0-2,2.6,0.1,4.8C51.4,24.2,49.9,22.5,49.8,22.6z"/>
	<path class="st2" d="M80,92.7H20.5c-1.2,0-2.2-1-2.2-2.2v-23h63.8v23C82.1,91.7,81.2,92.7,80,92.7z"/>
	<g>
		<path class="st3" d="M34.5,88.3h-2.4V73.3h4.3c0.6,0,1.3,0.1,1.9,0.3c0.6,0.2,1.2,0.5,1.7,0.9s0.9,0.9,1.2,1.5
			c0.3,0.6,0.5,1.2,0.5,1.9c0,0.8-0.1,1.4-0.4,2.1c-0.3,0.6-0.6,1.1-1.1,1.6c-0.5,0.4-1,0.7-1.7,1c-0.6,0.2-1.4,0.3-2.1,0.3h-1.8
			L34.5,88.3L34.5,88.3z M34.5,75.2v5.9h2.2c0.3,0,0.6-0.1,0.9-0.2c0.3-0.1,0.6-0.3,0.8-0.5c0.2-0.2,0.4-0.6,0.6-1
			c0.1-0.4,0.2-0.9,0.2-1.5c0-0.2,0-0.5-0.1-0.8c-0.1-0.3-0.2-0.6-0.4-0.9c-0.2-0.3-0.5-0.5-0.9-0.7c-0.4-0.2-0.9-0.3-1.5-0.3
			L34.5,75.2L34.5,75.2z"/>
		<path class="st3" d="M56.5,80.4c0,1.2-0.1,2.3-0.4,3.2c-0.3,0.9-0.6,1.6-1,2.2c-0.4,0.6-0.9,1.1-1.4,1.4c-0.5,0.3-1,0.6-1.5,0.8
			c-0.5,0.2-0.9,0.3-1.3,0.3c-0.4,0-0.7,0.1-0.9,0.1h-5.7V73.3h4.5c1.3,0,2.4,0.2,3.3,0.6c1,0.4,1.7,0.9,2.4,1.6
			c0.6,0.7,1.1,1.4,1.4,2.3C56.3,78.6,56.5,79.5,56.5,80.4z M49.3,86.5c1.6,0,2.8-0.5,3.6-1.6c0.7-1.1,1.1-2.6,1.1-4.6
			c0-0.6-0.1-1.2-0.2-1.8c-0.1-0.6-0.4-1.2-0.9-1.7c-0.4-0.5-1-0.9-1.7-1.2c-0.7-0.3-1.7-0.5-2.8-0.5h-1.4v11.3L49.3,86.5z"/>
		<path class="st3" d="M62.5,75.2v4.7h6.2v1.7h-6.2v6.7H60V73.3h9.3v1.8H62.5z"/>
	</g>
</g>
</svg>
